<?xml version="1.0" encoding="UTF-8" standalone="no"?>
<svg
   width="180"
   height="78.792839"
   version="1.1"
   id="svg1"
   sodipodi:docname="logo-thebe.svg"
   inkscape:version="1.2.2 (b0a8486541, 2022-12-01)"
   xmlns:inkscape="http://www.inkscape.org/namespaces/inkscape"
   xmlns:sodipodi="http://sodipodi.sourceforge.net/DTD/sodipodi-0.dtd"
   xmlns="http://www.w3.org/2000/svg"
   xmlns:svg="http://www.w3.org/2000/svg">
  <defs
     id="defs1" />
  <sodipodi:namedview
     id="namedview1"
     pagecolor="#505050"
     bordercolor="#ffffff"
     borderopacity="1"
     inkscape:showpageshadow="0"
     inkscape:pageopacity="0"
     inkscape:pagecheckerboard="1"
     inkscape:deskcolor="#d1d1d1"
     inkscape:zoom="3.7346695"
     inkscape:cx="91.708249"
     inkscape:cy="40.699719"
     inkscape:window-width="1417"
     inkscape:window-height="978"
     inkscape:window-x="209"
     inkscape:window-y="164"
     inkscape:window-maximized="0"
     inkscape:current-layer="svg1"
     showgrid="false" />
  <path
     data-name="Path 2"
     d="m 112.16448,53.551564 a 30.37512,30.37512 0 0 0 1.5453,-5.827977 61.350297,61.350297 0 0 0 0.98437,-6.250425 c 0.27093,-4.051889 -4.68506,-4.826545 -5.68549,0.229788 -0.68635,3.211006 -2.52867,12.216877 -2.52867,12.216877 -0.68434,3.368546 3.56823,4.133167 5.68549,-0.368263 M 78.005388,38.700658 h -0.02509 c -2.700256,0.121416 -3.560204,2.649081 -4.086006,5.359371 l -0.06623,0.335149 5.740678,-0.223767 0.22176,-1.118835 c 0.296015,-1.515194 0.496703,-3.163845 -0.268922,-3.918432 a 1.9587141,1.9587141 0 0 0 -1.516197,-0.4375 M 64.102732,3.0675148 C 64.322486,1.0696666 62.650755,-0.27895621 60.371944,0.04916853 L 5.5971869,14.791703 c -2.2747976,0.309059 -4.2054153,2.116254 -4.4271755,3.922445 l -1.16398991,6.4762 A 0.74053842,0.74053842 0 0 0 0.8248282,26.022199 L 18.947951,22.82223 10.679608,63.212681 a 2.0891612,2.0891612 0 0 0 2.037986,2.508599 l 10.598329,0.04014 9.005871,-44.097156 A 1.3405953,1.3405953 0 0 1 33.474746,20.58155 L 60.751244,15.710854 Z M 165.24142,5.4376392 115.80395,12.59116 a 2.0710993,2.0710993 0 0 0 -1.77608,1.63962 c -0.76362,3.740823 -3.80705,18.703111 -3.80705,18.703111 a 17.41068,17.41068 0 0 1 8.76303,-3.194952 c 0.0301,0 0.0602,0 0.0873,-0.006 2.8568,-0.132454 5.02623,0.549884 6.45413,2.039992 3.39564,3.562211 1.8975,10.886316 0.91012,15.718882 -1.54329,7.59102 -4.70714,18.553598 -14.72147,18.726189 h -0.0933 c -3.52608,0.04214 -6.07281,-1.342602 -7.16656,-3.662554 a 0.04916854,0.04916854 0 0 0 -0.0943,0.006 c -0.11941,0.625143 -0.32211,1.861381 -0.48968,2.684201 a 0.37227609,0.37227609 0 0 1 -0.37328,0.285981 L 91.876977,65.49551 a 0.5880156,0.5880156 0 0 1 -0.311066,-0.12543 0.32210411,0.32210411 0 0 1 -0.0873,-0.296015 L 101.72168,14.898068 43.781074,24.179884 a 0.80275168,0.80275168 0 0 0 -0.690367,0.62715 c 0,0 -2.432337,11.267623 -2.58185,11.879721 a 14.440499,14.440499 0 0 1 9.22161,-3.638472 c 2.847762,-0.130447 4.894778,0.401376 6.19925,1.628582 2.236667,2.114248 1.880446,5.827978 1.242258,9.176456 L 53.113062,65.336962 A 0.36826233,0.36826233 0 0 1 52.7448,65.607891 l -12.719601,0.01505 4.097044,-20.11194 c 0.168578,-0.903096 0.534834,-2.374138 -0.28598,-3.194952 a 1.8623839,1.8623839 0 0 0 -1.327551,-0.462586 c -2.709287,0 -3.336436,2.314936 -3.712726,4.362956 l -4.963012,23.79958 a 2.8608063,2.8608063 0 0 0 2.669149,3.429757 l 74.703067,3.888328 a 22.59746,22.59746 0 0 0 13.99196,-4.53655 c 5.47577,6.321669 17.08356,5.991537 17.16785,5.991537 15.11983,-0.09131 28.65121,-10.10564 31.65752,-26.142611 0.87801,-4.68506 3.34647,-18.88674 5.76576,-32.110067 A 12.902226,12.902226 0 0 0 165.25045,5.4406495 m -75.037216,44.8176255 -17.63244,0.574971 -0.31508,1.613531 v 0.006 a 16.913978,16.913978 0 0 0 -0.458572,4.182336 1.9868104,1.9868104 0 0 0 0.627149,1.564362 2.0891612,2.0891612 0 0 0 1.41485,0.417431 h 0.02107 c 2.950113,-0.07225 3.621414,-3.020353 4.106075,-5.177748 a 0.45255126,0.45255126 0 0 1 0.385321,-0.337156 l 10.903375,-0.328124 a 0.41241367,0.41241367 0 0 1 0.313073,0.123423 0.33514882,0.33514882 0 0 1 0.0873,0.301032 c -1.9547,8.494116 -7.085287,12.129577 -16.942074,12.299159 h -0.200688 c -5.017198,0.0572 -8.463009,-0.914134 -10.536116,-2.971185 -2.48552,-2.447389 -3.169865,-6.245408 -1.914562,-12.810913 1.89048,-9.854781 4.53354,-17.489952 19.446659,-18.262601 4.574681,-0.248853 7.805757,0.602064 9.794574,2.561781 3.418718,3.411695 2.54974,9.505584 1.274368,15.963721 a 0.38431736,0.38431736 0 0 1 -0.375286,0.28598 m 70.598,-1.782109 a 0.40137584,0.40137584 0 0 1 -0.38332,0.307053 l -17.63545,0.579988 -0.35622,1.730933 v 0.009 a 19.553024,19.553024 0 0 0 -0.57597,4.489389 2.1804742,2.1804742 0 0 0 0.58199,1.685779 1.9657382,1.9657382 0 0 0 1.40482,0.447534 h 0.0191 c 2.95413,-0.07626 3.7047,-3.2381 4.25258,-5.555042 a 0.48566476,0.48566476 0 0 1 0.39234,-0.362242 l 10.90539,-0.332138 a 0.390338,0.390338 0 0 1 0.30705,0.136468 0.34417978,0.34417978 0 0 1 0.0793,0.317086 c -2.19151,9.110229 -7.56092,13.506297 -17.4157,13.674875 h -0.20069 c -5.01719,0.0572 -8.42889,-0.995412 -10.44681,-3.211006 -2.40825,-2.635033 -2.84776,-7.206704 -1.40481,-14.262891 2.17245,-10.590301 5.03225,-18.79041 19.94336,-19.567072 4.5807,-0.251863 7.78067,0.667287 9.71129,2.781535 3.31737,3.666568 2.28483,10.203977 0.83085,17.129717 M 148.55221,36.350603 h -0.0251 c -2.70025,0.119409 -3.62843,2.83271 -4.2295,5.742685 l -0.0773,0.366255 5.74469,-0.229788 0.24986,-1.204127 c 0.33715,-1.624569 0.584,-3.39564 -0.16156,-4.207422 a 1.8252566,1.8252566 0 0 0 -1.50516,-0.473624"
     fill="#7b66a2"
     id="path1"
     style="fill:#35183e;fill-opacity:1;stroke-width:1.00344" />
</svg>
